<mxfile host="app.diagrams.net" modified="2024-02-15T13:57:32.007Z" agent="Mozilla/5.0 (X11; Linux x86_64; rv:122.0) Gecko/20100101 Firefox/122.0" etag="6mfJUe5nBIeCzuKDrqUh" version="23.1.1" type="device">
  <diagram name="Page-1" id="T4UdKJ4ygQMw-Swl2h31">
    <mxGraphModel dx="850" dy="634" grid="1" gridSize="10" guides="1" tooltips="1" connect="1" arrows="1" fold="1" page="0" pageScale="1" pageWidth="850" pageHeight="1100" background="none" math="0" shadow="0">
      <root>
        <mxCell id="0" />
        <mxCell id="1" parent="0" />
        <mxCell id="mNpNQ-4d4c98QAfEPy3P-2" value="" style="rounded=0;whiteSpace=wrap;html=1;fontSize=16;strokeColor=#d6b656;fillColor=#fff2cc;" vertex="1" parent="1">
          <mxGeometry x="280" y="120.34" width="40" height="40" as="geometry" />
        </mxCell>
        <mxCell id="mNpNQ-4d4c98QAfEPy3P-10" value="" style="rounded=0;whiteSpace=wrap;html=1;fontSize=16;strokeColor=#d6b656;fillColor=#fff2cc;" vertex="1" parent="1">
          <mxGeometry x="280" y="40" width="40" height="40" as="geometry" />
        </mxCell>
        <mxCell id="mNpNQ-4d4c98QAfEPy3P-11" value="" style="endArrow=classic;html=1;rounded=0;fontFamily=Helvetica;fontSize=16;fontColor=default;startSize=8;endSize=8;curved=1;fillColor=#d5e8d4;strokeColor=#82b366;" edge="1" parent="1">
          <mxGeometry width="50" height="50" relative="1" as="geometry">
            <mxPoint x="300" y="60.34" as="sourcePoint" />
            <mxPoint x="300" y="100.34" as="targetPoint" />
          </mxGeometry>
        </mxCell>
        <mxCell id="mNpNQ-4d4c98QAfEPy3P-18" value="" style="rounded=0;whiteSpace=wrap;html=1;fontSize=16;strokeColor=#d6b656;fillColor=#fff2cc;" vertex="1" parent="1">
          <mxGeometry x="400" y="120" width="40" height="40" as="geometry" />
        </mxCell>
        <mxCell id="mNpNQ-4d4c98QAfEPy3P-22" value="" style="rounded=0;whiteSpace=wrap;html=1;fontSize=16;strokeColor=#d6b656;fillColor=#fff2cc;" vertex="1" parent="1">
          <mxGeometry x="400" y="80" width="40" height="40" as="geometry" />
        </mxCell>
        <mxCell id="mNpNQ-4d4c98QAfEPy3P-27" value="" style="endArrow=classic;html=1;rounded=0;fontFamily=Helvetica;fontSize=16;fontColor=default;startSize=8;endSize=8;curved=1;fillColor=#d5e8d4;strokeColor=#82b366;" edge="1" parent="1">
          <mxGeometry width="50" height="50" relative="1" as="geometry">
            <mxPoint x="420" y="100.34" as="sourcePoint" />
            <mxPoint x="380" y="140.34" as="targetPoint" />
          </mxGeometry>
        </mxCell>
        <mxCell id="mNpNQ-4d4c98QAfEPy3P-44" value="" style="rounded=0;whiteSpace=wrap;html=1;fontSize=16;strokeColor=#d6b656;fillColor=#fff2cc;" vertex="1" parent="1">
          <mxGeometry x="520" y="120.34" width="40" height="40" as="geometry" />
        </mxCell>
        <mxCell id="mNpNQ-4d4c98QAfEPy3P-48" value="" style="rounded=0;whiteSpace=wrap;html=1;fontSize=16;strokeColor=#d6b656;fillColor=#fff2cc;" vertex="1" parent="1">
          <mxGeometry x="480" y="120.00000000000003" width="40" height="40" as="geometry" />
        </mxCell>
        <mxCell id="mNpNQ-4d4c98QAfEPy3P-54" value="" style="rounded=0;whiteSpace=wrap;html=1;fontSize=16;strokeColor=#d6b656;fillColor=#fff2cc;" vertex="1" parent="1">
          <mxGeometry x="520" y="40" width="40" height="40" as="geometry" />
        </mxCell>
        <mxCell id="mNpNQ-4d4c98QAfEPy3P-52" value="" style="endArrow=classic;html=1;rounded=0;fontFamily=Helvetica;fontSize=16;fontColor=default;startSize=8;endSize=8;curved=1;fillColor=#d5e8d4;strokeColor=#82b366;" edge="1" parent="1">
          <mxGeometry width="50" height="50" relative="1" as="geometry">
            <mxPoint x="539.8" y="60.34000000000003" as="sourcePoint" />
            <mxPoint x="539.8" y="100.34000000000003" as="targetPoint" />
          </mxGeometry>
        </mxCell>
        <mxCell id="mNpNQ-4d4c98QAfEPy3P-91" value="" style="rounded=0;whiteSpace=wrap;html=1;fontSize=16;strokeColor=#d6b656;fillColor=#fff2cc;" vertex="1" parent="1">
          <mxGeometry x="400" y="160.00000000000003" width="40" height="40" as="geometry" />
        </mxCell>
        <mxCell id="mNpNQ-4d4c98QAfEPy3P-92" value="" style="endArrow=classic;html=1;rounded=0;fontFamily=Helvetica;fontSize=16;fontColor=default;startSize=8;endSize=8;curved=1;fillColor=#d5e8d4;strokeColor=#82b366;" edge="1" parent="1">
          <mxGeometry width="50" height="50" relative="1" as="geometry">
            <mxPoint x="419.79999999999995" y="180.34" as="sourcePoint" />
            <mxPoint x="419.79999999999995" y="220.34" as="targetPoint" />
          </mxGeometry>
        </mxCell>
        <mxCell id="mNpNQ-4d4c98QAfEPy3P-95" value="" style="rounded=0;whiteSpace=wrap;html=1;fontSize=16;strokeColor=#d6b656;fillColor=#fff2cc;" vertex="1" parent="1">
          <mxGeometry x="240" y="240.00000000000003" width="40" height="40" as="geometry" />
        </mxCell>
        <mxCell id="mNpNQ-4d4c98QAfEPy3P-100" value="" style="endArrow=none;html=1;rounded=0;fontFamily=Helvetica;fontSize=16;fontColor=default;startSize=8;endSize=8;curved=1;" edge="1" parent="1">
          <mxGeometry width="50" height="50" relative="1" as="geometry">
            <mxPoint x="600" y="40" as="sourcePoint" />
            <mxPoint x="240" y="40" as="targetPoint" />
          </mxGeometry>
        </mxCell>
        <mxCell id="mNpNQ-4d4c98QAfEPy3P-101" value="" style="rounded=0;whiteSpace=wrap;html=1;fontSize=16;strokeColor=#d6b656;fillColor=#fff2cc;" vertex="1" parent="1">
          <mxGeometry x="280" y="240.00000000000003" width="40" height="40" as="geometry" />
        </mxCell>
        <mxCell id="mNpNQ-4d4c98QAfEPy3P-103" value="" style="rounded=0;whiteSpace=wrap;html=1;fontSize=16;strokeColor=#d6b656;fillColor=#fff2cc;" vertex="1" parent="1">
          <mxGeometry x="360" y="240.00000000000003" width="40" height="40" as="geometry" />
        </mxCell>
        <mxCell id="mNpNQ-4d4c98QAfEPy3P-104" value="" style="rounded=0;whiteSpace=wrap;html=1;fontSize=16;strokeColor=#d6b656;fillColor=#fff2cc;" vertex="1" parent="1">
          <mxGeometry x="400" y="240.00000000000003" width="40" height="40" as="geometry" />
        </mxCell>
        <mxCell id="mNpNQ-4d4c98QAfEPy3P-105" value="" style="rounded=0;whiteSpace=wrap;html=1;fontSize=16;strokeColor=#d6b656;fillColor=#fff2cc;" vertex="1" parent="1">
          <mxGeometry x="440" y="240.00000000000003" width="40" height="40" as="geometry" />
        </mxCell>
        <mxCell id="mNpNQ-4d4c98QAfEPy3P-106" value="" style="rounded=0;whiteSpace=wrap;html=1;fontSize=16;strokeColor=#d6b656;fillColor=#fff2cc;" vertex="1" parent="1">
          <mxGeometry x="480" y="240.00000000000003" width="40" height="40" as="geometry" />
        </mxCell>
        <mxCell id="mNpNQ-4d4c98QAfEPy3P-111" value="" style="rounded=0;whiteSpace=wrap;html=1;fontSize=16;strokeColor=#d6b656;fillColor=#fff2cc;" vertex="1" parent="1">
          <mxGeometry x="520" y="240.00000000000003" width="40" height="40" as="geometry" />
        </mxCell>
        <mxCell id="mNpNQ-4d4c98QAfEPy3P-112" value="" style="rounded=0;whiteSpace=wrap;html=1;fontSize=16;strokeColor=#d6b656;fillColor=#fff2cc;" vertex="1" parent="1">
          <mxGeometry x="560" y="240.00000000000003" width="40" height="40" as="geometry" />
        </mxCell>
        <mxCell id="mNpNQ-4d4c98QAfEPy3P-98" value="" style="endArrow=none;html=1;rounded=0;fontFamily=Helvetica;fontSize=16;fontColor=default;startSize=8;endSize=8;curved=1;" edge="1" parent="1">
          <mxGeometry width="50" height="50" relative="1" as="geometry">
            <mxPoint x="240" y="280" as="sourcePoint" />
            <mxPoint x="600" y="280" as="targetPoint" />
          </mxGeometry>
        </mxCell>
        <mxCell id="mNpNQ-4d4c98QAfEPy3P-9" value="" style="endArrow=none;html=1;rounded=0;fontFamily=Helvetica;fontSize=16;fontColor=default;startSize=8;endSize=8;curved=1;" edge="1" parent="1">
          <mxGeometry width="50" height="50" relative="1" as="geometry">
            <mxPoint x="240" y="280" as="sourcePoint" />
            <mxPoint x="240" y="39.66" as="targetPoint" />
          </mxGeometry>
        </mxCell>
        <mxCell id="mNpNQ-4d4c98QAfEPy3P-99" value="" style="endArrow=none;html=1;rounded=0;fontFamily=Helvetica;fontSize=16;fontColor=default;startSize=8;endSize=8;curved=1;" edge="1" parent="1">
          <mxGeometry width="50" height="50" relative="1" as="geometry">
            <mxPoint x="600" y="40" as="sourcePoint" />
            <mxPoint x="600" y="280" as="targetPoint" />
          </mxGeometry>
        </mxCell>
        <mxCell id="mNpNQ-4d4c98QAfEPy3P-113" value="" style="rounded=0;whiteSpace=wrap;html=1;fontSize=16;strokeColor=#d6b656;fillColor=#fff2cc;" vertex="1" parent="1">
          <mxGeometry x="280" y="200" width="40" height="40" as="geometry" />
        </mxCell>
        <mxCell id="mNpNQ-4d4c98QAfEPy3P-82" value="" style="endArrow=classic;html=1;rounded=0;fontFamily=Helvetica;fontSize=16;fontColor=default;startSize=8;endSize=8;curved=1;fillColor=#d5e8d4;strokeColor=#82b366;" edge="1" parent="1">
          <mxGeometry width="50" height="50" relative="1" as="geometry">
            <mxPoint x="300" y="220" as="sourcePoint" />
            <mxPoint x="340" y="260" as="targetPoint" />
          </mxGeometry>
        </mxCell>
        <mxCell id="mNpNQ-4d4c98QAfEPy3P-114" value="" style="rounded=0;whiteSpace=wrap;html=1;fontSize=16;strokeColor=#d6b656;fillColor=#fff2cc;" vertex="1" parent="1">
          <mxGeometry x="520" y="200.00000000000003" width="40" height="40" as="geometry" />
        </mxCell>
        <mxCell id="mNpNQ-4d4c98QAfEPy3P-115" value="" style="endArrow=none;html=1;rounded=0;fontFamily=Helvetica;fontSize=16;fontColor=default;startSize=8;endSize=8;curved=1;entryX=0;entryY=1;entryDx=0;entryDy=0;" edge="1" parent="1" target="mNpNQ-4d4c98QAfEPy3P-103">
          <mxGeometry width="50" height="50" relative="1" as="geometry">
            <mxPoint x="360" y="40" as="sourcePoint" />
            <mxPoint x="610" y="290" as="targetPoint" />
          </mxGeometry>
        </mxCell>
        <mxCell id="mNpNQ-4d4c98QAfEPy3P-116" value="" style="endArrow=none;html=1;rounded=0;fontFamily=Helvetica;fontSize=16;fontColor=default;startSize=8;endSize=8;curved=1;entryX=0;entryY=1;entryDx=0;entryDy=0;" edge="1" parent="1">
          <mxGeometry width="50" height="50" relative="1" as="geometry">
            <mxPoint x="480" y="40" as="sourcePoint" />
            <mxPoint x="480" y="280" as="targetPoint" />
          </mxGeometry>
        </mxCell>
        <mxCell id="mNpNQ-4d4c98QAfEPy3P-117" value="" style="endArrow=none;html=1;rounded=0;fontFamily=Helvetica;fontSize=16;fontColor=default;startSize=8;endSize=8;curved=1;" edge="1" parent="1">
          <mxGeometry width="50" height="50" relative="1" as="geometry">
            <mxPoint x="600" y="160" as="sourcePoint" />
            <mxPoint x="240" y="160" as="targetPoint" />
          </mxGeometry>
        </mxCell>
      </root>
    </mxGraphModel>
  </diagram>
</mxfile>
